<svg xmlns="http://www.w3.org/2000/svg" viewBox="0 0 54.68 84.85"><defs><style>.cls-1{fill:none;stroke:#502c10;stroke-miterlimit:10;stroke-width:3.5px;}.cls-2{fill:#502c10;}</style></defs><title>brush</title><g id="Layer_2" data-name="Layer 2"><g id="Layer_1-2" data-name="Layer 1"><path class="cls-1" d="M1.78,37.21H52.9a0,0,0,0,1,0,0v6.66a5,5,0,0,1-5,5H6.78a5,5,0,0,1-5-5V37.21a0,0,0,0,1,0,0Z"/><polygon class="cls-1" points="52.38 29.66 2.3 29.66 1.78 1.75 52.9 1.75 52.38 29.66"/><path class="cls-1" d="M28,83.1h0a7.38,7.38,0,0,1-7.35-8l2.16-26.25H33.16l2.16,26.25A7.36,7.36,0,0,1,28,83.1Z"/><line class="cls-1" x1="12.98" y1="1.75" x2="12.98" y2="17.98"/><line class="cls-1" x1="23.28" y1="29.66" x2="23.28" y2="16.68"/><circle class="cls-2" cx="27.98" cy="75.76" r="2.77"/></g></g></svg>