<svg xmlns="http://www.w3.org/2000/svg" viewBox="0 0 63.29 39.67"><defs><style>.cls-1,.cls-2{fill:none;}.cls-1,.cls-2,.cls-3{stroke:#fff;stroke-miterlimit:10;}.cls-1,.cls-3{stroke-width:1.91px;}.cls-2{stroke-linecap:round;stroke-width:3px;}.cls-3{fill:#fff;}</style></defs><title>bundle_inverted</title><g id="Layer_2" data-name="Layer 2"><g id="Layer_1-2" data-name="Layer 1"><path class="cls-1" d="M11,4.88A2.63,2.63,0,0,1,8.34,7.51v3.06a2.64,2.64,0,0,1,0,5.28v3.06a2.64,2.64,0,0,1,0,5.27v3.06A2.64,2.64,0,0,1,11,29.88h14.9v-25Z"/><path class="cls-1" d="M58.3,17.38a4,4,0,0,1,4-4V7.88a3,3,0,0,0-3-3H29.87v25H59.34a3,3,0,0,0,3-3V21.42A4,4,0,0,1,58.3,17.38Z"/><line class="cls-2" x1="50.84" y1="13.6" x2="34.57" y2="13.6"/><line class="cls-2" x1="50.84" y1="18.92" x2="34.57" y2="18.92"/><line class="cls-2" x1="50.84" y1="24.24" x2="34.57" y2="24.24"/><path class="cls-3" d="M53.67,4.88l-.5-1.76a3,3,0,0,0-3.71-2L36.26,4.88Z"/><polygon class="cls-3" points="29.86 29.88 29.86 6.72 25.86 7.87 25.86 25.64 28.06 33.26 39.79 29.88 29.86 29.88"/><path class="cls-3" d="M11,29.88a2.64,2.64,0,0,0-2.63-2.64V24.18a2.64,2.64,0,0,0,0-5.27V15.85A2.64,2.64,0,0,0,11,13.21a2.72,2.72,0,0,0-.19-1L3,14.47a2.62,2.62,0,0,1-1.8,3.26L2,20.67a2.64,2.64,0,0,1,1.46,5.07l.85,2.94A2.63,2.63,0,1,1,5.8,33.74l.84,2.95a2.64,2.64,0,0,1,3.27,1.8l14.31-4.13-1.3-4.48Z"/></g></g></svg>