<svg xmlns="http://www.w3.org/2000/svg" viewBox="0 0 42.35 46.05"><defs><style>.cls-1,.cls-2,.cls-3{fill:none;stroke:#4f2d15;stroke-linejoin:round;}.cls-1{stroke-width:3px;}.cls-2{stroke-linecap:round;stroke-width:4px;}.cls-3{stroke-width:2px;}.cls-4{fill:#4f2d15;}</style></defs><title>calendar</title><g id="Layer_2" data-name="Layer 2"><g id="Layer_1-2" data-name="Layer 1"><path class="cls-1" d="M37.85,5.2a3,3,0,0,1,3,3V41.55a3,3,0,0,1-3,3H4.5a3,3,0,0,1-3-3V8.2a3,3,0,0,1,3-3"/><line class="cls-1" x1="14.35" y1="5.2" x2="27.99" y2="5.2"/><line class="cls-2" x1="9.53" y1="2" x2="9.53" y2="8.4"/><line class="cls-2" x1="32.81" y1="2" x2="32.81" y2="8.4"/><line class="cls-3" x1="1.5" y1="14.58" x2="40.85" y2="14.58"/><circle class="cls-4" cx="17.73" cy="21.59" r="2.15"/><circle class="cls-4" cx="24.62" cy="21.59" r="2.15"/><circle class="cls-4" cx="31.51" cy="21.59" r="2.15"/><circle class="cls-4" cx="31.51" cy="29" r="2.15"/><circle class="cls-4" cx="10.83" cy="29" r="2.15"/><circle class="cls-4" cx="17.73" cy="29" r="2.15"/><circle class="cls-4" cx="24.62" cy="29" r="2.15"/><circle class="cls-4" cx="10.83" cy="36.42" r="2.15"/><circle class="cls-4" cx="17.73" cy="36.42" r="2.15"/><circle class="cls-4" cx="24.62" cy="36.42" r="2.15"/></g></g></svg>