<svg xmlns="http://www.w3.org/2000/svg" viewBox="0 0 54.73 37.51"><defs><style>.cls-1{fill:none;stroke:#502c10;stroke-miterlimit:10;stroke-width:2px;}</style></defs><title>choice</title><g id="Layer_2" data-name="Layer 2"><g id="Layer_1-2" data-name="Layer 1"><path class="cls-1" d="M19.82,12.81H15V8.65a1.53,1.53,0,0,0-2.38-1.28L2,14.37a2.33,2.33,0,0,0,0,3.88l10.6,7A1.53,1.53,0,0,0,15,24V19.81h4.8a4.86,4.86,0,0,1,4.86,4.86V34.89a1.62,1.62,0,0,0,1.62,1.62h3.77a1.61,1.61,0,0,0,1.61-1.62V24.67A11.86,11.86,0,0,0,19.82,12.81Z"/><path class="cls-1" d="M52.69,8.26l-10.6-7A1.54,1.54,0,0,0,39.7,2.54V6.7h-.8a11.83,11.83,0,0,0-9.57,4.89,12.89,12.89,0,0,1,4.81,6A4.88,4.88,0,0,1,38.9,13.7h.8v4.16a1.54,1.54,0,0,0,2.39,1.28l10.6-7A2.34,2.34,0,0,0,52.69,8.26Z"/></g></g></svg>