<svg xmlns="http://www.w3.org/2000/svg" viewBox="0 0 38.61 38.61"><defs><style>.cls-1,.cls-2{fill:#fff;stroke:#a25424;stroke-miterlimit:10;}.cls-1{stroke-width:2px;}</style></defs><title>day</title><g id="Layer_2" data-name="Layer 2"><g id="Layer_1-2" data-name="Layer 1"><circle class="cls-1" cx="19.3" cy="19.3" r="7.05"/><path class="cls-2" d="M19.3,38.11a2,2,0,0,1-2-2V32.35a2,2,0,0,1,4,0v3.76A2,2,0,0,1,19.3,38.11Z"/><path class="cls-2" d="M19.3,8.26a2,2,0,0,1-2-2V2.5a2,2,0,0,1,4,0V6.26A2,2,0,0,1,19.3,8.26Z"/><path class="cls-2" d="M31.18,33.18a2,2,0,0,1-1.41-.58l-2.66-2.66a2,2,0,1,1,2.83-2.83l2.66,2.66a2,2,0,0,1-1.42,3.41Z"/><path class="cls-2" d="M10.08,12.08a2,2,0,0,1-1.42-.59L6,8.84A2,2,0,0,1,8.83,6l2.66,2.65a2,2,0,0,1-1.41,3.42Z"/><path class="cls-2" d="M36.11,21.3H32.35a2,2,0,0,1,0-4h3.76a2,2,0,0,1,0,4Z"/><path class="cls-2" d="M6.26,21.3H2.5a2,2,0,0,1,0-4H6.26a2,2,0,1,1,0,4Z"/><path class="cls-2" d="M28.53,12.08a2,2,0,0,1-1.42-3.42L29.77,6A2,2,0,1,1,32.6,8.84l-2.66,2.65A2,2,0,0,1,28.53,12.08Z"/><path class="cls-2" d="M7.42,33.18A2,2,0,0,1,6,32.6a2,2,0,0,1,0-2.83l2.65-2.66a2,2,0,1,1,2.83,2.83L8.83,32.6A2,2,0,0,1,7.42,33.18Z"/></g></g></svg>