<svg xmlns="http://www.w3.org/2000/svg" viewBox="0 0 22.69 23.71"><defs><style>.cls-1{fill:#4f2e16;}</style></defs><title>email</title><g id="Layer_2" data-name="Layer 2"><g id="Layer_1-2" data-name="Layer 1"><path class="cls-1" d="M15.52,14.63a3,3,0,0,0-.16.79c0,.51.31.77.92.77a2.36,2.36,0,0,0,1.37-.5,4.83,4.83,0,0,0,1.26-1.35,8.72,8.72,0,0,0,.93-2,7.94,7.94,0,0,0,.36-2.41,7.83,7.83,0,0,0-.67-3.33,7.28,7.28,0,0,0-1.81-2.45,8.08,8.08,0,0,0-2.66-1.53,9.74,9.74,0,0,0-3.21-.53A9.14,9.14,0,0,0,5.13,5,9.56,9.56,0,0,0,3.19,8.06a10.42,10.42,0,0,0-.7,3.86,10,10,0,0,0,.73,3.88,9.09,9.09,0,0,0,2,3.08,9.22,9.22,0,0,0,3,2A9.7,9.7,0,0,0,12,21.6a11.11,11.11,0,0,0,4.29-.82,7.55,7.55,0,0,0,2.8-2,1.2,1.2,0,0,1,.91-.43,1.11,1.11,0,0,1,1,.46c.33.62-.14,1.08-.85,1.73a10.82,10.82,0,0,1-2.41,1.68A13.73,13.73,0,0,1,15,23.32a12,12,0,0,1-3,.39,11.84,11.84,0,0,1-4.7-.93,11.66,11.66,0,0,1-3.79-2.53A11.8,11.8,0,0,1,.92,16.46,12,12,0,0,1,0,11.79a11.27,11.27,0,0,1,.94-4.6A12,12,0,0,1,3.49,3.44,12.17,12.17,0,0,1,7.25.92,11.55,11.55,0,0,1,11.82,0,12,12,0,0,1,16,.73a11.24,11.24,0,0,1,3.46,2,9.75,9.75,0,0,1,2.34,3.06,8.72,8.72,0,0,1,.86,3.87,8.82,8.82,0,0,1-.75,3.69,10.1,10.1,0,0,1-1.88,2.84A8.77,8.77,0,0,1,17.62,18a5.62,5.62,0,0,1-2.42.63,2,2,0,0,1-1.4-.52,2.06,2.06,0,0,1-.61-1.52h-.13A9,9,0,0,1,11.31,18a4.1,4.1,0,0,1-2.2.63,4,4,0,0,1-1.83-.4,4.1,4.1,0,0,1-1.37-1.06,4.82,4.82,0,0,1-.86-1.58,6.24,6.24,0,0,1-.3-2,9.72,9.72,0,0,1,.51-3.09A9.11,9.11,0,0,1,6.69,7.85,7.42,7.42,0,0,1,8.94,5.93a6,6,0,0,1,3-.74,3.85,3.85,0,0,1,2,.56,3.28,3.28,0,0,1,1.37,1.87h.07l.22-.78A1.43,1.43,0,0,1,17,5.8h0A.92.92,0,0,1,17.83,7ZM12,7.68a3.87,3.87,0,0,0-2,.49A4.52,4.52,0,0,0,8.62,9.51a6.32,6.32,0,0,0-.89,1.91,7.83,7.83,0,0,0-.31,2.22A3,3,0,0,0,8,15.5a2,2,0,0,0,1.74.69,3.12,3.12,0,0,0,1.77-.56,5.21,5.21,0,0,0,1.38-1.39,6.76,6.76,0,0,0,.89-1.83,6.14,6.14,0,0,0,.32-1.93,3.83,3.83,0,0,0-.49-2A1.65,1.65,0,0,0,12,7.68Z"/></g></g></svg>