<svg xmlns="http://www.w3.org/2000/svg" viewBox="0 0 14.65 17.09"><defs><style>.cls-1{fill:#4f2e16;}</style></defs><title>hash</title><g id="Layer_2" data-name="Layer 2"><g id="Layer_1-2" data-name="Layer 1"><path class="cls-1" d="M2.76,12.71H1.12A1.12,1.12,0,0,1,0,11.59v0a1.12,1.12,0,0,1,1.12-1.12h2l.58-4.18H2A1.12,1.12,0,0,1,.9,5.15v0A1.12,1.12,0,0,1,2,4H4l.41-3A1.12,1.12,0,0,1,5.49,0h0A1.12,1.12,0,0,1,6.6,1.27L6.24,4H9.63L10,1a1.11,1.11,0,0,1,1.11-1h0a1.12,1.12,0,0,1,1.11,1.27L11.9,4h1.63a1.12,1.12,0,0,1,1.12,1.12v0a1.12,1.12,0,0,1-1.12,1.12H11.58L11,10.45h1.63a1.12,1.12,0,0,1,1.12,1.12v0a1.12,1.12,0,0,1-1.12,1.12h-2l-.47,3.41a1.11,1.11,0,0,1-1.11,1h0A1.12,1.12,0,0,1,8,15.82l.42-3.11H5l-.46,3.41a1.12,1.12,0,0,1-1.11,1h0a1.12,1.12,0,0,1-1.11-1.27ZM5.92,6.27l-.58,4.18H8.73l.58-4.18Z"/></g></g></svg>