<svg xmlns="http://www.w3.org/2000/svg" viewBox="0 0 71.34 71.34"><defs><style>.cls-1{fill:#fff;opacity:0;}.cls-2{fill:none;stroke:#502c10;stroke-miterlimit:10;stroke-width:4px;}.cls-3{fill:#502c10;}</style></defs><title>lock</title><g id="Layer_2" data-name="Layer 2"><g id="Layer_1-2" data-name="Layer 1"><rect class="cls-1" width="71.34" height="71.34"/><path class="cls-2" d="M45.16,33.17V21.64a9.49,9.49,0,0,0-19,0V33.17"/><path class="cls-3" d="M48.49,29.18H22.85a4.69,4.69,0,0,0-4.68,4.68V54.51a4.68,4.68,0,0,0,4.68,4.67H48.49a4.67,4.67,0,0,0,4.68-4.67V33.86A4.68,4.68,0,0,0,48.49,29.18ZM35.67,47.79a3.61,3.61,0,1,1,3.6-3.61A3.61,3.61,0,0,1,35.67,47.79Z"/></g></g></svg>