<svg xmlns="http://www.w3.org/2000/svg" viewBox="0 0 43.88 54.02"><defs><style>.cls-1{fill:#fff;}</style></defs><title>map_inverted</title><g id="Layer_2" data-name="Layer 2"><g id="Layer_1-2" data-name="Layer 1"><path class="cls-1" d="M21.94,10.08a6,6,0,1,0,5.95,6A6,6,0,0,0,21.94,10.08Z"/><path class="cls-1" d="M21.94,0A15.68,15.68,0,0,0,6.26,15.68c0,8.66,8.69,19.67,15.68,29.22,6.92-9.48,15.68-20.56,15.68-29.22A15.68,15.68,0,0,0,21.94,0Zm0,24.81A8.78,8.78,0,1,1,30.72,16,8.79,8.79,0,0,1,21.94,24.81Z"/><path class="cls-1" d="M38.54,37.84H30.17c-1.44,2-2.92,4-4.35,6-.63.85-1.25,1.69-1.86,2.53a2.51,2.51,0,0,1-2,1h0a2.51,2.51,0,0,1-2-1c-.57-.79-1.16-1.58-1.75-2.39-1.48-2-3-4.06-4.47-6.15H5.34L0,54H43.88Z"/></g></g></svg>