<svg xmlns="http://www.w3.org/2000/svg" viewBox="0 0 64.5 76"><defs><style>.cls-1,.cls-3,.cls-4,.cls-5{fill:none;}.cls-1,.cls-4,.cls-5{stroke:#502c10;stroke-miterlimit:10;}.cls-2{fill:#502c10;}.cls-3{stroke:#fff;stroke-linecap:round;stroke-linejoin:round;}.cls-3,.cls-5{stroke-width:2px;}.cls-4{opacity:0.5;}</style></defs><title>one-step-to-go</title><g id="Layer_2" data-name="Layer 2"><g id="Layer_1-2" data-name="Layer 1"><rect class="cls-1" x="0.5" y="0.5" width="63.5" height="75" rx="8" ry="8"/><circle class="cls-2" cx="14.39" cy="16.87" r="6.36"/><polyline class="cls-3" points="17.84 15.24 13.4 19.67 10.94 17.21"/><circle class="cls-4" cx="14.39" cy="16.87" r="8.04"/><rect class="cls-1" x="26.94" y="17.11" width="30.94" height="5.84" rx="2.92" ry="2.92"/><rect class="cls-2" x="26.94" y="9.96" width="23.47" height="3.34" rx="1.67" ry="1.67"/><circle class="cls-2" cx="14.39" cy="37.99" r="6.36"/><polyline class="cls-3" points="17.84 36.35 13.4 40.79 10.94 38.32"/><circle class="cls-4" cx="14.39" cy="37.99" r="8.04"/><rect class="cls-1" x="26.94" y="38.22" width="30.94" height="5.84" rx="2.92" ry="2.92"/><rect class="cls-2" x="26.94" y="31.07" width="23.47" height="3.34" rx="1.67" ry="1.67"/><circle class="cls-5" cx="15.39" cy="59.1" r="6.92"/><rect class="cls-1" x="26.94" y="59.33" width="30.94" height="5.84" rx="2.92" ry="2.92"/><rect class="cls-2" x="26.94" y="52.18" width="23.47" height="3.34" rx="1.67" ry="1.67"/></g></g></svg>