<svg xmlns="http://www.w3.org/2000/svg" viewBox="0 0 56.18 65.39"><defs><style>.cls-1,.cls-2{fill:none;stroke:#502c10;stroke-miterlimit:10;}.cls-1{stroke-width:3.5px;}.cls-2{stroke-linecap:round;stroke-width:2.5px;}.cls-3{fill:#502c10;}</style></defs><title>price_tag</title><g id="Layer_2" data-name="Layer 2"><g id="Layer_1-2" data-name="Layer 1"><path class="cls-1" d="M49.92,6.21,54.29,25a5.78,5.78,0,0,1-.63,4.19L35.23,61.11A5,5,0,0,1,28.33,63l-24-13.89a5,5,0,0,1-1.85-6.9L20.86,10.25a5.74,5.74,0,0,1,3.31-2.63L42.63,2a5.76,5.76,0,0,1,7.29,4.21"/><circle class="cls-2" cx="29.33" cy="44.25" r="3.4"/><circle class="cls-2" cx="24.92" cy="29.86" r="3.4"/><line class="cls-2" x1="36.34" y1="34.36" x2="17.9" y2="39.78"/><circle class="cls-3" cx="41.19" cy="12.68" r="5.3"/></g></g></svg>