<svg xmlns="http://www.w3.org/2000/svg" viewBox="0 0 52.68 61.89"><defs><style>.cls-1{fill:#fff;}</style></defs><title>price_tag_inverted</title><g id="Layer_2" data-name="Layer 2"><g id="Layer_1-2" data-name="Layer 1"><path class="cls-1" d="M21.73,29.21A2.39,2.39,0,0,0,25,28.27a2.38,2.38,0,0,0-2.08-3.51,2.18,2.18,0,0,0-.67.1A2.33,2.33,0,0,0,20.79,26,2.36,2.36,0,0,0,21.73,29.21Z"/><path class="cls-1" d="M29,41.42a2.29,2.29,0,0,0-1.13-.29,2.37,2.37,0,0,0-2.27,3,2.33,2.33,0,0,0,1.14,1.41A2.37,2.37,0,1,0,29,41.42Z"/><path class="cls-1" d="M52.54,23.25,48.17,4.46A5.76,5.76,0,0,0,40.88.25L22.42,5.87A5.74,5.74,0,0,0,19.11,8.5L.68,40.42a5,5,0,0,0,1.85,6.9l24,13.89a5,5,0,0,0,6.9-1.85L51.91,27.44A5.78,5.78,0,0,0,52.54,23.25ZM18.15,24.56a5.37,5.37,0,1,1,6.23,7.72,5.34,5.34,0,0,1-4.09-.44A5.38,5.38,0,0,1,18.15,24.56ZM32.59,46.07a5.37,5.37,0,1,1-9.42-5.14,5.37,5.37,0,0,1,9.42,5.14Zm3.69-12.39-21,6.17a1.54,1.54,0,0,1-.43.06A1.5,1.5,0,0,1,14.45,37l21-6.17a1.5,1.5,0,1,1,.85,2.88Zm3.16-17.45a5.3,5.3,0,1,1,5.31-5.3A5.3,5.3,0,0,1,39.44,16.23Z"/></g></g></svg>