<svg xmlns="http://www.w3.org/2000/svg" viewBox="0 0 22.3 13.7"><defs><style>.cls-1{fill:#4f2d15;}.cls-2{fill:#4f2e16;}</style></defs><title>regex</title><g id="Layer_2" data-name="Layer 2"><g id="Layer_1-2" data-name="Layer 1"><path class="cls-1" d="M5,12.61,1.7.63A.87.87,0,0,0,.64,0a.84.84,0,0,0-.52.4A.85.85,0,0,0,0,1.09l3.29,12a.86.86,0,0,0,.83.63l.2,0a.88.88,0,0,0,.54-.4A.87.87,0,0,0,5,12.61Z"/><path class="cls-2" d="M12,11.84h0a2.6,2.6,0,0,1-1.17,1.06,3.79,3.79,0,0,1-1.58.33,3.92,3.92,0,0,1-1.65-.32A3.71,3.71,0,0,1,6.37,12a3.93,3.93,0,0,1-.78-1.33,5.06,5.06,0,0,1,0-3.29,4.19,4.19,0,0,1,.79-1.33,3.54,3.54,0,0,1,1.23-.89,3.63,3.63,0,0,1,1.56-.33,3.75,3.75,0,0,1,1,.12,3.54,3.54,0,0,1,.76.3,3.16,3.16,0,0,1,.57.39,2.84,2.84,0,0,1,.38.41h0V1.46a1,1,0,0,1,1-1h0a1,1,0,0,1,1,1V12a1,1,0,0,1-1,1,.9.9,0,0,1-.66-.24C12,12.54,12,11.84,12,11.84ZM7.32,9a2.51,2.51,0,0,0,.16.9,2.22,2.22,0,0,0,1.2,1.3,2.38,2.38,0,0,0,1,.2,2.35,2.35,0,0,0,1-.2,2.22,2.22,0,0,0,.74-.53,2.35,2.35,0,0,0,.47-.77A2.75,2.75,0,0,0,12,9a2.65,2.65,0,0,0-.16-.89,2.25,2.25,0,0,0-.47-.77,2.22,2.22,0,0,0-.74-.53,2.35,2.35,0,0,0-1-.2,2.38,2.38,0,0,0-1,.2,2.33,2.33,0,0,0-.74.53,2.23,2.23,0,0,0-.46.77A2.42,2.42,0,0,0,7.32,9Z"/><path class="cls-2" d="M19.62,3.62l2.25-.73.43,1.33L20,5l1.43,2-1.15.83-1.43-2-1.4,1.91-1.11-.85L17.81,5l-2.28-.78L16,2.84l2.26.78V1.26h1.4Z"/></g></g></svg>