<svg xmlns="http://www.w3.org/2000/svg" viewBox="0 0 33.41 41.94"><defs><style>.cls-1{fill:#502c10;}.cls-2{fill:none;stroke:#502c10;stroke-miterlimit:10;stroke-width:4px;}</style></defs><title>remove</title><g id="Layer_2" data-name="Layer 2"><g id="Layer_1-2" data-name="Layer 1"><rect class="cls-1" y="6.02" width="33.41" height="6" rx="3" ry="3"/><path class="cls-2" d="M16.74,2h0a4.93,4.93,0,0,1,4.93,4.93V9a0,0,0,0,1,0,0H11.81a0,0,0,0,1,0,0V6.93A4.93,4.93,0,0,1,16.74,2Z"/><path class="cls-1" d="M2.58,15.16,4,39.11a3,3,0,0,0,3,2.83H26.26a3,3,0,0,0,3-2.83l1.37-23.95Zm8.49,20.73a1.25,1.25,0,1,1-2.49,0v-13a1.25,1.25,0,1,1,2.49,0Zm6.78,0a1.25,1.25,0,1,1-2.5,0v-13a1.25,1.25,0,0,1,2.5,0Zm6.78,0a1.25,1.25,0,0,1-2.5,0v-13a1.25,1.25,0,0,1,2.5,0Z"/></g></g></svg>