<svg xmlns="http://www.w3.org/2000/svg" viewBox="0 0 62.53 67.23"><defs><style>.cls-1,.cls-2{fill:none;stroke:#fff;stroke-linecap:round;stroke-linejoin:round;}.cls-1{stroke-width:6px;}.cls-2{stroke-width:16px;}.cls-3{fill:#fff;}</style></defs><title>seat_inverted</title><g id="Layer_2" data-name="Layer 2"><g id="Layer_1-2" data-name="Layer 1"><path class="cls-1" d="M59.53,25.94V52.48s-10.64,6.75-28.27,6.75C13.2,59.23,3,52.48,3,52.48V25.94"/><path class="cls-2" d="M12.05,56.41a64,64,0,0,0,19.21,2.82,64.11,64.11,0,0,0,19-2.82"/><path class="cls-3" d="M10.5,25.94V44a12.74,12.74,0,0,1,5.29.48,51.55,51.55,0,0,0,15.47,2.25,51.56,51.56,0,0,0,15.32-2.25A12.38,12.38,0,0,1,52,44V25.94a7.5,7.5,0,0,1,4.16-6.71A3.18,3.18,0,0,0,58,16.42V8.5a3.74,3.74,0,0,0-1.89-3.28C52.8,3.35,45,0,31.26,0S9.7,3.33,6.43,5.21A3.76,3.76,0,0,0,4.57,8.47v8a3.16,3.16,0,0,0,1.8,2.8A7.5,7.5,0,0,1,10.5,25.94Z"/></g></g></svg>