<svg xmlns="http://www.w3.org/2000/svg" viewBox="0 0 54.23 46.61"><defs><style>.cls-1{fill:#fff;}</style></defs><title>settings_inverted</title><g id="Layer_2" data-name="Layer 2"><g id="Layer_1-2" data-name="Layer 1"><path class="cls-1" d="M33.8,12.46A5.64,5.64,0,0,1,28.9,4,17.11,17.11,0,0,0,22,0a5.64,5.64,0,0,1-4.91,2.85A5.64,5.64,0,0,1,12.23,0,17.11,17.11,0,0,0,5.37,4a5.64,5.64,0,0,1-4.9,8.49,16.92,16.92,0,0,0,0,7.92,5.64,5.64,0,0,1,4.9,8.49,17.11,17.11,0,0,0,6.86,4,5.64,5.64,0,0,1,9.81,0,17.11,17.11,0,0,0,6.86-4,5.64,5.64,0,0,1,4.9-8.49,16.92,16.92,0,0,0,0-7.92ZM17.13,21.17a4.76,4.76,0,1,1,4.76-4.75A4.75,4.75,0,0,1,17.13,21.17Z"/><path class="cls-1" d="M53.4,29.81A4.11,4.11,0,0,1,49,24.16,12.38,12.38,0,0,0,43.7,22a4.11,4.11,0,0,1-7.08,1,12.39,12.39,0,0,0-4.56,3.53,4.11,4.11,0,0,1-2.71,6.6,12.82,12.82,0,0,0,0,2.9,12.41,12.41,0,0,0,.72,2.82,4.1,4.1,0,0,1,4.37,5.64,12.39,12.39,0,0,0,5.33,2.2,4.11,4.11,0,0,1,7.08-1,12.48,12.48,0,0,0,4.56-3.53,4.1,4.1,0,0,1,2.71-6.6,12.82,12.82,0,0,0-.05-2.9A12.2,12.2,0,0,0,53.4,29.81ZM42.22,37.72a3.46,3.46,0,1,1,3-3.9A3.47,3.47,0,0,1,42.22,37.72Z"/></g></g></svg>