<svg xmlns="http://www.w3.org/2000/svg" viewBox="0 0 56.93 34.67"><defs><style>.cls-1{fill:#fff;}</style></defs><title>ticket_inverted_small</title><g id="Layer_2" data-name="Layer 2"><g id="Layer_1-2" data-name="Layer 1"><path class="cls-1" d="M2,10.23a2.64,2.64,0,0,1-2,3.13l.64,3a2.64,2.64,0,0,1,1.11,5.16l.64,3A2.63,2.63,0,0,1,3.5,29.65l.64,3a2.64,2.64,0,0,1,3.14,2l14.55-3.13L16.58,7.1Z"/><path class="cls-1" d="M50.92,12.51A4,4,0,0,1,54,7.71L52.87,2.37A3,3,0,0,0,49.31.07L20.49,6.26,25.74,30.7l28.82-6.19A3,3,0,0,0,56.86,21l-1.14-5.34A4,4,0,0,1,50.92,12.51Z"/></g></g></svg>