<svg xmlns="http://www.w3.org/2000/svg" viewBox="0 0 55.91 26.91"><defs><style>.cls-1,.cls-2{fill:none;stroke:#502c10;stroke-miterlimit:10;}.cls-1{stroke-width:1.91px;}.cls-2{stroke-linecap:round;stroke-width:3px;}</style></defs><title>ticket</title><g id="Layer_2" data-name="Layer 2"><g id="Layer_1-2" data-name="Layer 1"><path class="cls-1" d="M3.59,1A2.64,2.64,0,0,1,1,3.59V6.65a2.64,2.64,0,1,1,0,5.27V15a2.64,2.64,0,0,1,0,5.28v3.06A2.64,2.64,0,0,1,3.59,26H18.48V1Z"/><path class="cls-1" d="M50.91,13.45a4,4,0,0,1,4-4V4a3,3,0,0,0-3-3H22.48V26H52a3,3,0,0,0,3-3V17.49A4,4,0,0,1,50.91,13.45Z"/><line class="cls-2" x1="43.45" y1="9.68" x2="27.19" y2="9.68"/><line class="cls-2" x1="43.45" y1="15" x2="27.19" y2="15"/><line class="cls-2" x1="43.45" y1="20.32" x2="27.19" y2="20.32"/></g></g></svg>