<svg xmlns="http://www.w3.org/2000/svg" viewBox="0 0 63.34 37.52"><defs><style>.cls-1,.cls-2,.cls-3{fill:none;stroke:#502c10;stroke-miterlimit:10;}.cls-1{stroke-width:1.91px;}.cls-2,.cls-3{stroke-width:3px;}.cls-3{stroke-linecap:round;}</style></defs><title>transfer</title><g id="Layer_2" data-name="Layer 2"><g id="Layer_1-2" data-name="Layer 1"><path class="cls-1" d="M57,36.56H23.84L38.27,1H57a5.17,5.17,0,0,1,5.39,4.91v25.8A5.16,5.16,0,0,1,57,36.56Z"/><path class="cls-2" d="M45.86,18.33a4.18,4.18,0,0,1-4.43-3.9,4.18,4.18,0,0,1,4.43-3.89,4.18,4.18,0,0,1,4.43,3.89"/><path class="cls-2" d="M45.86,18.33a4.66,4.66,0,0,1,4.93,4.34c0,2.39-2.2,4.33-4.93,4.33s-4.93-1.94-4.93-4.33"/><line class="cls-2" x1="45.86" y1="8.02" x2="45.86" y2="29.49"/><line class="cls-3" x1="29.28" y1="5.55" x2="13.01" y2="5.55"/><line class="cls-3" x1="23.84" y1="13.5" x2="1.5" y2="13.5"/><line class="cls-3" x1="18.85" y1="28.35" x2="2.87" y2="28.35"/></g></g></svg>