<svg xmlns="http://www.w3.org/2000/svg" viewBox="0 0 71.34 71.34"><defs><style>.cls-1,.cls-3{fill:#fff;}.cls-1{opacity:0;}.cls-2{fill:none;stroke:#fff;stroke-miterlimit:10;stroke-width:4px;}</style></defs><title>unlock_inverted</title><g id="Layer_2" data-name="Layer 2"><g id="Layer_1-2" data-name="Layer 1"><rect class="cls-1" width="71.34" height="71.34"/><path class="cls-2" d="M7.21,24.05v-2a9.49,9.49,0,0,1,19,0V33.58"/><path class="cls-3" d="M48.49,30.9H22.85a4.67,4.67,0,0,0-4.68,4.68V56.22a4.68,4.68,0,0,0,4.68,4.68H48.49a4.68,4.68,0,0,0,4.68-4.68V35.58A4.67,4.67,0,0,0,48.49,30.9ZM35.67,49.5a3.6,3.6,0,1,1,3.6-3.6A3.6,3.6,0,0,1,35.67,49.5Z"/></g></g></svg>